<svg xmlns="http://www.w3.org/2000/svg" width="256" height="256"><path fill-opacity=".016" d="M0 128.004v128.004l128.25-.254 128.25-.254.254-127.75L257.008 0H0v128.004m.485.496c0 70.4.119 99.053.265 63.672.146-35.38.146-92.98 0-128C.604 29.153.485 58.1.485 128.5" fill="#FFF500" fill-rule="evenodd"/><path fill-opacity=".091" d="M100.493 34.351c-2.754 1.283-6.458 3.984-8.232 6.004-5.849 6.662-6.653 9.14-7.076 21.806l-.39 11.661-19.648.354c-17.522.316-20.153.586-24.323 2.5-6.29 2.887-13.421 9.641-16.663 15.784L21.5 97.5l-.285 50.119c-.276 48.591-.222 50.288 1.783 55.647 2.796 7.473 8.718 13.936 16.191 17.67l6.13 3.064h165.362l6.13-3.064c7.473-3.734 13.395-10.197 16.191-17.67 2.005-5.359 2.059-7.056 1.783-55.647L234.5 97.5l-2.661-5.04c-3.242-6.143-10.373-12.897-16.663-15.784-4.17-1.914-6.801-2.184-24.323-2.5l-19.648-.354-.39-11.661c-.423-12.666-1.227-15.144-7.076-21.806-1.774-2.02-5.478-4.721-8.232-6.004-4.778-2.225-6.038-2.331-27.507-2.331s-22.729.106-27.507 2.331" fill="#FFF500" fill-rule="evenodd"/><path fill-opacity=".351" d="M102.679 33.543c-5.787 2.123-10.957 6.72-14.208 12.633-2.642 4.806-2.964 6.408-3.303 16.458l-.376 11.133-19.226.396-19.226.395-6.628 3.263c-7.208 3.549-12.188 8.571-15.905 16.043L21.5 98.5v101l2.651 5.655c3.131 6.677 9.031 12.721 15.613 15.991L44.5 223.5h167l4.736-2.354c6.582-3.27 12.482-9.314 15.613-15.991l2.651-5.655v-101l-2.307-4.636c-3.717-7.472-8.697-12.494-15.905-16.043l-6.628-3.263-19.226-.395-19.226-.396-.376-11.133c-.339-10.05-.661-11.652-3.303-16.458-3.342-6.079-8.455-10.533-14.564-12.688-5.832-2.058-44.644-2.015-50.286.055M108.2 55.2c-.752.752-1.2 4.489-1.2 10V74h42v-8.8c0-5.511-.448-9.248-1.2-10-1.692-1.692-37.908-1.692-39.6 0M49.388 96.971c-1.161.474-3.087 2.102-4.278 3.616-2.161 2.748-2.166 2.864-1.888 49.671l.278 46.916 2.806 2.413L49.112 202h157.776l2.806-2.413 2.806-2.413.278-47.039.279-47.04-2.946-3.297-2.946-3.298-77.833-.196c-42.807-.108-78.782.192-79.944.667m65.504 17.335c-6.94 2.915-10.51 5.422-15.351 10.78-14.85 16.438-10.832 43.633 8.237 55.739 18.947 12.03 43.52 5.308 53.646-14.675 9.635-19.013 1.504-41.77-18.206-50.954-8.222-3.831-20.411-4.214-28.326-.89m6.553 20.599c-3.636 1.568-8.207 7.729-8.936 12.042-.551 3.259-.21 5.075 1.648 8.779 3.343 6.664 6.672 8.774 13.843 8.774s10.5-2.11 13.843-8.774c3.184-6.347 2.324-11.552-2.818-17.064-3.44-3.689-4.221-4.04-9.634-4.329-3.24-.173-6.816.085-7.946.572m64.732 23.786c-28.288 9.535-29.22 10.828-10.691 14.829 5.869 1.267 10.9 2.533 11.181 2.813.28.281 1.546 5.312 2.813 11.181 4.05 18.754 5.627 17.608 15.249-11.083 7.028-20.957 7.659-24.317 4.7-25.038-.511-.125-10.974 3.16-23.252 7.298m3.823 4.736l-12.5 4.269 6.838 1.573c3.76.865 7.058 1.794 7.329 2.064.27.271 1.198 3.569 2.062 7.329l1.57 6.838 3.862-11.5c5.243-15.612 5.075-15.01 4.156-14.921-.449.043-6.442 2-13.317 4.348" fill="#FFF500" fill-rule="evenodd"/><path fill-opacity=".986" d="M104.806 33.355c-2.582.719-5.507 1.923-6.5 2.676-9.821 7.444-11.628 11.337-12.285 26.469l-.521 12-20 .5c-23.727.593-27.232 1.644-35.436 10.62-8.334 9.119-8.176 7.804-7.849 65.495L22.5 201.5l2.966 5.355c3.783 6.83 10.274 12.542 16.863 14.841 4.818 1.681 10.664 1.804 85.671 1.804s80.853-.123 85.671-1.804c6.589-2.299 13.08-8.011 16.863-14.841l2.966-5.355.285-50.385c.327-57.691.485-56.376-7.849-65.495-8.175-8.944-11.69-9.997-35.436-10.606l-20-.514-.521-12c-.591-13.622-2.113-17.777-8.597-23.47-6.862-6.024-8.824-6.445-31.382-6.726-14.52-.181-21.869.126-25.194 1.051m3.635 21.063c-1.681 1.228-1.941 2.665-1.941 10.75V74.5h43v-9.332c0-8.085-.26-9.522-1.941-10.75-2.809-2.052-36.309-2.052-39.118 0M46.659 98.054c-4.568 3.593-4.802 6.393-4.47 53.446.337 47.623.208 46.531 5.883 49.884C50.529 202.835 58.708 203 128 203s77.471-.165 79.928-1.616c5.675-3.353 5.546-2.261 5.883-49.884.332-47.053.098-49.853-4.47-53.446C206.758 96.022 205.902 96 128 96c-77.902 0-78.758.022-81.341 2.054m73.685 14.931c-13.171 2.784-24.139 13.177-27.905 26.44-4.731 16.661 3.775 35.618 19.435 43.311 5.06 2.486 6.682 2.764 16.126 2.764s11.066-.278 16.126-2.764c11.359-5.58 19.734-18.044 20.641-30.717 1.458-20.387-13.525-37.878-33.767-39.418-3.575-.272-8.37-.099-10.656.384m1.158 21.533c-6.574 3.554-9.502 8.032-9.502 14.531 0 13.059 14.02 20.836 24.754 13.733 6.645-4.398 9.284-13.94 5.747-20.78-3.752-7.255-14.401-11.05-20.999-7.484m64.175 24.668c-26.709 9.016-27.499 10.227-9.156 14.035L187.5 175.5l2.279 10.979c3.833 18.46 5.018 17.631 14.208-9.94 3.961-11.883 6.948-22.266 6.639-23.072-.31-.807-1.365-1.431-2.345-1.388-.979.043-11.151 3.242-22.604 7.107m3.573 4.12c-6.738 2.274-12.25 4.427-12.25 4.785 0 .358 2.268.952 5.039 1.32 8.844 1.173 9.661 1.792 10.938 8.283.627 3.193 1.391 6.481 1.696 7.306.459 1.24 9.327-22.741 9.327-25.221 0-1.267-1.87-.82-14.75 3.527" fill="#FFF500" fill-rule="evenodd"/></svg>